<svg viewBox="0 0 954 754" xmlns="http://www.w3.org/2000/svg" fill="none">
  <!-- Pink/magenta wave trio -->
  <path d="M 45 440 C 15 400, 15 330, 95 300 C 175 270, 225 400, 285 480 C 345 560, 425 610, 505 565 C 605 510, 625 340, 705 210 C 765 110, 825 85, 905 130"
        stroke="#e879f9" stroke-width="1.4" opacity="0.85"/>
  <path d="M 48 475 C 15 435, 15 360, 100 330 C 185 300, 235 425, 300 505 C 360 580, 440 630, 520 585 C 620 530, 640 360, 720 230 C 780 130, 838 105, 918 150"
        stroke="#d946ef" stroke-width="1.4" opacity="0.85"/>
  <path d="M 52 510 C 18 470, 18 390, 108 360 C 195 330, 248 450, 315 530 C 378 600, 458 650, 538 605 C 638 550, 655 380, 735 250 C 795 150, 852 125, 932 170"
        stroke="#c026d3" stroke-width="1.4" opacity="0.85"/>

  <!-- Gold wave duo (upper right) -->
  <path d="M 620 -10 C 570 70, 530 145, 570 215 C 610 285, 695 300, 760 225 C 835 140, 890 65, 954 100"
        stroke="#eab308" stroke-width="1.4" opacity="0.85"/>
  <path d="M 655 -10 C 605 75, 565 155, 605 225 C 645 295, 730 315, 795 235 C 865 150, 915 75, 954 130"
        stroke="#f2b705" stroke-width="1.4" opacity="0.85"/>
</svg>
